<svg version="1.1" viewBox="0 0 96 96" xmlns="http://www.w3.org/2000/svg" xmlns:xlink="http://www.w3.org/1999/xlink" id="Icons_Stopwatch" overflow="hidden"><circle cx="48" cy="33" r="2"/><circle cx="48" cy="73" r="2"/><circle cx="68" cy="52" r="2"/><circle cx="28" cy="52" r="2"/><path d=" M 50 38 L 46 38 L 46 52 C 46 52.5 46.2 53 46.6 53.4 L 56.5 63.3 L 59.3 60.5 L 50 51.2 L 50 38 Z"/><path d=" M 48 81 C 32.5 81 20 68.5 20 53 C 20 37.5 32.5 25 48 25 C 63.5 25 76 37.5 76 53 C 76 68.5 63.5 81 48 81 L 48 81 Z M 71.7 28.6 L 74.7 25.6 C 75.8 24.4 75.8 22.6 74.6 21.4 C 73.5 20.3 71.6 20.2 70.4 21.3 L 67 24.8 C 62.2 21.6 56.7 19.6 51 19.2 L 51 15 L 60 15 L 60 9 L 36 9 L 36 15 L 45 15 L 45 19.1 C 29.1 20.5 16.3 32.8 14.3 48.7 C 12.3 64.6 21.6 79.7 36.7 85 C 51.8 90.3 68.5 84.5 77 70.9 C 85.5 57.3 83.1 39.7 71.7 28.6 L 71.7 28.6 Z"/></svg>